{
	"asset":{
		"generator":"Khronos glTF Blender I/O v3.6.27",
		"version":"2.0"
	},
	"scene":0,
	"scenes":[
		{
			"name":"Scene",
			"nodes":[
				0,
				1
			]
		}
	],
	"nodes":[
		{
			"mesh":0,
			"name":"BUITENRAND"
		},
		{
			"mesh":1,
			"name":"text",
			"rotation":[
				-0.5000847578048706,
				-0.5000847578048706,
				0.49991533160209656,
				0.49991536140441895
			]
		}
	],
	"materials":[
		{
			"doubleSided":true,
			"name":"Material.003",
			"pbrMetallicRoughness":{
				"baseColorFactor":[
					0,
					0,
					0,
					1
				],
				"metallicFactor":0,
				"roughnessFactor":0.5
			}
		}
	],
	"meshes":[
		{
			"name":"Cube.003",
			"primitives":[
				{
					"attributes":{
						"POSITION":0,
						"NORMAL":1,
						"TEXCOORD_0":2
					},
					"indices":3
				}
			]
		},
		{
			"name":"Text.007",
			"primitives":[
				{
					"attributes":{
						"POSITION":4,
						"NORMAL":5,
						"TEXCOORD_0":6
					},
					"indices":7,
					"material":0
				}
			]
		}
	],
	"accessors":[
		{
			"bufferView":0,
			"componentType":5126,
			"count":198,
			"max":[
				0.1299966722726822,
				0.11877887696027756,
				0.01715623028576374
			],
			"min":[
				-0.12999670207500458,
				-0.19140538573265076,
				-0.01715622842311859
			],
			"type":"VEC3"
		},
		{
			"bufferView":1,
			"componentType":5126,
			"count":198,
			"type":"VEC3"
		},
		{
			"bufferView":2,
			"componentType":5126,
			"count":198,
			"type":"VEC2"
		},
		{
			"bufferView":3,
			"componentType":5123,
			"count":288,
			"type":"SCALAR"
		},
		{
			"bufferView":4,
			"componentType":5126,
			"count":38424,
			"max":[
				0.11389599740505219,
				0.018081186339259148,
				0.12588036060333252
			],
			"min":[
				-0.1885073184967041,
				-0.018128078430891037,
				-0.12588147819042206
			],
			"type":"VEC3"
		},
		{
			"bufferView":5,
			"componentType":5126,
			"count":38424,
			"type":"VEC3"
		},
		{
			"bufferView":6,
			"componentType":5126,
			"count":38424,
			"type":"VEC2"
		},
		{
			"bufferView":7,
			"componentType":5123,
			"count":105408,
			"type":"SCALAR"
		}
	],
	"bufferViews":[
		{
			"buffer":0,
			"byteLength":2376,
			"byteOffset":0,
			"target":34962
		},
		{
			"buffer":0,
			"byteLength":2376,
			"byteOffset":2376,
			"target":34962
		},
		{
			"buffer":0,
			"byteLength":1584,
			"byteOffset":4752,
			"target":34962
		},
		{
			"buffer":0,
			"byteLength":576,
			"byteOffset":6336,
			"target":34963
		},
		{
			"buffer":0,
			"byteLength":461088,
			"byteOffset":6912,
			"target":34962
		},
		{
			"buffer":0,
			"byteLength":461088,
			"byteOffset":468000,
			"target":34962
		},
		{
			"buffer":0,
			"byteLength":307392,
			"byteOffset":929088,
			"target":34962
		},
		{
			"buffer":0,
			"byteLength":210816,
			"byteOffset":1236480,
			"target":34963
		}
	],
	"buffers":[
		{
			"byteLength":1447296,
			"uri":"data:application/octet-stream;base64,"
		}
	]
}
